<svg xmlns="http://www.w3.org/2000/svg" viewBox="0 0 41 127.5"><defs><style>.cls-1{fill:#fff;}.cls-2{fill:#4caf50;}.cls-3{font-size:14.28px;font-family:Avenir-Black, Avenir;font-weight:800;}.cls-4{letter-spacing:-0.09em;}.cls-5{fill:none;stroke:#000;stroke-miterlimit:10;}</style></defs><title>tick_tutor_3</title><g id="Layer_2" data-name="Layer 2"><g id="Layer_1-2" data-name="Layer 1"><line class="cls-1" x1="20.5" y1="32.5" x2="20.5" y2="122.5"/><path class="cls-2" d="M20.5,127.5a5,5,0,0,1-5-5v-90a5,5,0,0,1,10,0v90A5,5,0,0,1,20.5,127.5Z"/><polygon class="cls-1" points="20.65 38.3 24 32.5 17.3 32.5 20.65 38.3"/><text class="cls-3" transform="translate(3 15.47)"><tspan class="cls-4">T</tspan><tspan x="6.88" y="0">utor</tspan></text><path class="cls-5" d="M40.5,2.69v15a2.22,2.22,0,0,1-2.26,2.19H25.63l-4.29,7.22a.78.78,0,0,1-1.32,0l-4.29-7.22h-13A2.22,2.22,0,0,1,.5,17.72v-15A2.22,2.22,0,0,1,2.76.5H38.24A2.22,2.22,0,0,1,40.5,2.69Z"/></g></g></svg>